<?xml version="1.0" encoding="UTF-8"?>
<!DOCTYPE svg PUBLIC "-//W3C//DTD SVG 1.1//EN" "http://www.w3.org/Graphics/SVG/1.1/DTD/svg11.dtd">
<svg xmlns="http://www.w3.org/2000/svg" version="1.1" width="500px" height="500px" style="shape-rendering:geometricPrecision; text-rendering:geometricPrecision; image-rendering:optimizeQuality; fill-rule:evenodd; clip-rule:evenodd" xmlns:xlink="http://www.w3.org/1999/xlink">
<g><path style="opacity:1" fill="#414141" d="M 108.5,217.5 C 101.929,212.76 101.929,207.926 108.5,203C 117.121,202.015 120.288,205.848 118,214.5C 115.358,217.029 112.192,218.029 108.5,217.5 Z M 108.5,206.5 C 113.501,205.671 115.668,207.671 115,212.5C 112.952,214.787 110.785,214.954 108.5,213C 107.395,210.88 107.395,208.713 108.5,206.5 Z"/></g>
<g><path style="opacity:1" fill="#3c3c3c" d="M 108.5,217.5 C 110.5,220.167 112.5,222.833 114.5,225.5C 114.414,226.496 114.748,227.329 115.5,228C 119.152,228.499 122.818,228.665 126.5,228.5C 127.993,229.312 128.66,230.645 128.5,232.5C 128.66,234.355 127.993,235.688 126.5,236.5C 126.672,235.508 126.338,234.842 125.5,234.5C 125.5,234.167 125.5,233.833 125.5,233.5C 121.859,231.863 117.859,230.697 113.5,230C 111.167,227 108.833,224 106.5,221C 104.833,220.333 103.167,220.333 101.5,221C 98.1466,227.88 95.48,235.047 93.5,242.5C 92.1667,242.5 91.5,243.167 91.5,244.5C 90.6981,243.048 90.1981,241.382 90,239.5C 87.6024,238.144 85.1024,236.977 82.5,236C 81.4258,235.261 80.7591,234.261 80.5,233C 83.0684,225.795 85.735,218.628 88.5,211.5C 90.4213,210.359 92.4213,210.192 94.5,211C 99.3337,213.05 104,215.217 108.5,217.5 Z M 91.5,213.5 C 93.7014,214.566 96.0347,215.233 98.5,215.5C 96.7933,222.634 94.1267,229.301 90.5,235.5C 88.0671,234.977 86.0671,233.81 84.5,232C 86.7434,225.766 89.0767,219.599 91.5,213.5 Z"/></g>
<g><path style="opacity:1" fill="#404040" d="M 140.5,202.5 C 151.354,202.518 155.854,207.851 154,218.5C 151.302,225.256 147.635,231.256 143,236.5C 137.588,229.677 133.755,222.01 131.5,213.5C 132.017,207.662 135.017,203.995 140.5,202.5 Z M 142.5,205.5 C 147.373,206.097 150.373,208.764 151.5,213.5C 149.724,219.719 146.89,225.386 143,230.5C 139.769,225.204 136.935,219.704 134.5,214C 135.329,212.184 136.163,210.351 137,208.5C 138.876,207.391 140.709,206.391 142.5,205.5 Z M 142.5,211.5 C 146.61,213.746 146.277,215.079 141.5,215.5C 141.433,214.041 141.766,212.708 142.5,211.5 Z"/></g>
<g><path style="opacity:1" fill="#3d3d3d" d="M 140.5,208.5 C 146.665,207.829 149.165,210.496 148,216.5C 142.995,220.888 139.495,219.888 137.5,213.5C 138.092,211.577 139.092,209.911 140.5,208.5 Z M 142.5,211.5 C 141.766,212.708 141.433,214.041 141.5,215.5C 146.277,215.079 146.61,213.746 142.5,211.5 Z"/></g>
<g><path style="opacity:0.498" fill="#8a8a8a" d="M 114.5,225.5 C 118.399,227.019 122.399,228.019 126.5,228.5C 122.818,228.665 119.152,228.499 115.5,228C 114.748,227.329 114.414,226.496 114.5,225.5 Z"/></g>
<g><path style="opacity:0.502" fill="#7a7a7a" d="M 112.5,232.5 C 116.735,233.436 121.069,233.769 125.5,233.5C 125.5,233.833 125.5,234.167 125.5,234.5C 120.706,235.097 116.373,234.43 112.5,232.5 Z"/></g>
<g><path style="opacity:0.21" fill="#c4c4c4" d="M 294.5,239.5 C 292.274,237.82 290.607,238.153 289.5,240.5C 288.596,239.791 288.263,238.791 288.5,237.5C 291.082,237.025 293.082,237.692 294.5,239.5 Z"/></g>
<g><path style="opacity:0.211" fill="#c4c4c4" d="M 307.5,238.5 C 308.274,237.853 309.274,237.52 310.5,237.5C 312.03,237.64 313.03,238.307 313.5,239.5C 311.621,238.659 309.621,238.325 307.5,238.5 Z"/></g>
<g><path style="opacity:0.212" fill="#c6c6c6" d="M 326.5,238.5 C 327.919,237.549 329.585,237.216 331.5,237.5C 331.768,239.099 331.434,240.432 330.5,241.5C 330.5,240.5 330.5,239.5 330.5,238.5C 329.167,238.5 327.833,238.5 326.5,238.5 Z"/></g>
<g><path style="opacity:0.212" fill="#c3c3c3" d="M 374.5,238.5 C 372.219,238.077 370.552,238.744 369.5,240.5C 368.596,239.791 368.263,238.791 368.5,237.5C 370.735,237.205 372.735,237.539 374.5,238.5 Z"/></g>
<g><path style="opacity:0.212" fill="#c1c1c1" d="M 396.5,240.5 C 395.393,238.153 393.726,237.82 391.5,239.5C 392.918,237.692 394.918,237.025 397.5,237.5C 397.737,238.791 397.404,239.791 396.5,240.5 Z"/></g>
<g><path style="opacity:1" fill="#1a1a1a" d="M 174.5,240.5 C 174.973,239.094 175.973,238.427 177.5,238.5C 178.833,238.5 180.167,238.5 181.5,238.5C 181.5,239.833 181.5,241.167 181.5,242.5C 179.901,242.232 178.568,242.566 177.5,243.5C 175.864,244.749 174.697,246.416 174,248.5C 173.5,254.825 173.334,261.158 173.5,267.5C 171.833,267.5 170.167,267.5 168.5,267.5C 168.5,257.833 168.5,248.167 168.5,238.5C 169.833,238.5 171.167,238.5 172.5,238.5C 172.343,239.873 172.51,241.207 173,242.5C 173.717,241.956 174.217,241.289 174.5,240.5 Z"/></g>
<g><path style="opacity:1" fill="#161616" d="M 188.5,238.5 C 189.833,238.5 191.167,238.5 192.5,238.5C 192.176,245.354 192.509,252.021 193.5,258.5C 198.958,265.35 203.958,265.017 208.5,257.5C 209.49,251.355 209.823,245.022 209.5,238.5C 210.833,238.5 212.167,238.5 213.5,238.5C 213.5,248.167 213.5,257.833 213.5,267.5C 212.167,267.5 210.833,267.5 209.5,267.5C 209.657,266.127 209.49,264.793 209,263.5C 208.283,264.044 207.783,264.711 207.5,265.5C 202.43,269.297 197.097,269.464 191.5,266C 190.177,265.184 189.511,264.017 189.5,262.5C 189.414,261.504 189.748,260.671 190.5,260C 188.559,253.115 187.892,245.948 188.5,238.5 Z"/></g>
<g><path style="opacity:1" fill="#252525" d="M 241.5,244.5 C 241.027,243.094 240.027,242.427 238.5,242.5C 233.72,241.641 230.22,243.308 228,247.5C 227.5,254.158 227.334,260.825 227.5,267.5C 225.833,267.5 224.167,267.5 222.5,267.5C 222.5,257.833 222.5,248.167 222.5,238.5C 223.833,238.5 225.167,238.5 226.5,238.5C 226.343,239.873 226.51,241.207 227,242.5C 227.717,241.956 228.217,241.289 228.5,240.5C 229.058,239.21 230.058,238.377 231.5,238C 237.694,236.289 242.86,237.789 247,242.5C 248.438,250.723 248.938,259.057 248.5,267.5C 246.5,267.5 244.5,267.5 242.5,267.5C 242.767,259.778 242.434,252.111 241.5,244.5 Z"/></g>
<g><path style="opacity:1" fill="#282828" d="M 277.5,240.5 C 277.461,241.756 277.961,242.756 279,243.5C 279.494,241.866 279.66,240.199 279.5,238.5C 281.167,238.5 282.833,238.5 284.5,238.5C 284.5,248.167 284.5,257.833 284.5,267.5C 282.833,267.5 281.167,267.5 279.5,267.5C 279.66,265.801 279.494,264.134 279,262.5C 278.283,263.044 277.783,263.711 277.5,264.5C 272.848,268.752 267.514,269.586 261.5,267C 260.944,266.617 260.611,266.117 260.5,265.5C 260.027,264.094 259.027,263.427 257.5,263.5C 253.738,256.649 253.571,249.649 257,242.5C 263.377,236.712 270.21,236.046 277.5,240.5 Z M 266.5,242.5 C 277.564,243.273 281.064,248.939 277,259.5C 270.842,265.124 265.509,264.458 261,257.5C 259.087,250.97 260.92,245.97 266.5,242.5 Z"/></g>
<g><path style="opacity:1" fill="#292929" d="M 294.5,239.5 C 295.903,243.381 296.903,247.381 297.5,251.5C 297.41,254.152 298.076,256.485 299.5,258.5C 299.281,259.675 299.614,260.675 300.5,261.5C 301.298,261.043 301.631,260.376 301.5,259.5C 303.037,252.35 305.037,245.35 307.5,238.5C 309.621,238.325 311.621,238.659 313.5,239.5C 313.5,239.833 313.5,240.167 313.5,240.5C 313.41,243.152 314.076,245.485 315.5,247.5C 317.135,251.664 318.635,255.998 320,260.5C 321.88,252.958 324.047,245.624 326.5,238.5C 327.833,238.5 329.167,238.5 330.5,238.5C 330.5,239.5 330.5,240.5 330.5,241.5C 328.219,250.126 325.552,258.626 322.5,267C 320.421,267.808 318.421,267.641 316.5,266.5C 314.436,259.808 312.269,253.141 310,246.5C 308,253.167 306,259.833 304,266.5C 301.358,268.059 299.025,267.725 297,265.5C 294.031,257.285 291.531,248.952 289.5,240.5C 290.607,238.153 292.274,237.82 294.5,239.5 Z"/></g>
<g><path style="opacity:1" fill="#252525" d="M 357.5,241.5 C 357.783,242.289 358.283,242.956 359,243.5C 359.494,241.866 359.66,240.199 359.5,238.5C 360.833,238.5 362.167,238.5 363.5,238.5C 363.5,248.167 363.5,257.833 363.5,267.5C 362.167,267.5 360.833,267.5 359.5,267.5C 359.66,265.801 359.494,264.134 359,262.5C 358.283,263.044 357.783,263.711 357.5,264.5C 355.174,267.16 352.174,268.493 348.5,268.5C 345.845,268.56 343.511,267.893 341.5,266.5C 341.027,265.094 340.027,264.427 338.5,264.5C 332.577,257.657 332.077,250.324 337,242.5C 342.344,237.346 348.511,236.18 355.5,239C 356.381,239.708 357.047,240.542 357.5,241.5 Z M 346.5,242.5 C 353.996,242.073 357.996,245.573 358.5,253C 357.175,261.339 352.508,264.339 344.5,262C 337.536,254.666 338.203,248.166 346.5,242.5 Z"/></g>
<g><path style="opacity:1" fill="#2d2d2d" d="M 374.5,238.5 C 377.558,245.339 380.225,252.339 382.5,259.5C 383.301,261.793 383.968,261.46 384.5,258.5C 386.241,251.943 388.574,245.609 391.5,239.5C 393.726,237.82 395.393,238.153 396.5,240.5C 391.733,254.037 386.4,267.371 380.5,280.5C 378.5,281.833 376.5,281.833 374.5,280.5C 376.364,276.239 378.031,271.906 379.5,267.5C 376.158,258.47 372.824,249.47 369.5,240.5C 370.552,238.744 372.219,238.077 374.5,238.5 Z"/></g>
<g><path style="opacity:0.867" fill="#595959" d="M 177.5,238.5 C 178.919,237.549 180.585,237.216 182.5,237.5C 182.5,239.5 182.5,241.5 182.5,243.5C 180.833,243.5 179.167,243.5 177.5,243.5C 178.568,242.566 179.901,242.232 181.5,242.5C 181.5,241.167 181.5,239.833 181.5,238.5C 180.167,238.5 178.833,238.5 177.5,238.5 Z"/></g>
<g><path style="opacity:0.643" fill="#616161" d="M 187.5,238.5 C 187.833,238.5 188.167,238.5 188.5,238.5C 187.892,245.948 188.559,253.115 190.5,260C 189.748,260.671 189.414,261.504 189.5,262.5C 188.778,262.082 188.278,261.416 188,260.5C 187.5,253.174 187.334,245.841 187.5,238.5 Z"/></g>
<g><path style="opacity:0.522" fill="#8b8b8b" d="M 213.5,267.5 C 213.5,257.833 213.5,248.167 213.5,238.5C 212.167,238.5 210.833,238.5 209.5,238.5C 209.823,245.022 209.49,251.355 208.5,257.5C 208.5,250.833 208.5,244.167 208.5,237.5C 210.5,237.5 212.5,237.5 214.5,237.5C 214.827,247.681 214.494,257.681 213.5,267.5 Z"/></g>
<g><path style="opacity:0.383" fill="#9f9f9f" d="M 228.5,240.5 C 228.217,241.289 227.717,241.956 227,242.5C 226.51,241.207 226.343,239.873 226.5,238.5C 225.167,238.5 223.833,238.5 222.5,238.5C 222.5,248.167 222.5,257.833 222.5,267.5C 221.506,257.681 221.173,247.681 221.5,237.5C 223.5,237.5 225.5,237.5 227.5,237.5C 227.263,238.791 227.596,239.791 228.5,240.5 Z"/></g>
<g><path style="opacity:0.204" fill="#c5c5c5" d="M 284.5,238.5 C 282.833,238.5 281.167,238.5 279.5,238.5C 279.66,240.199 279.494,241.866 279,243.5C 277.961,242.756 277.461,241.756 277.5,240.5C 278.404,239.791 278.737,238.791 278.5,237.5C 280.735,237.205 282.735,237.539 284.5,238.5 Z"/></g>
<g><path style="opacity:0.432" fill="#979797" d="M 363.5,267.5 C 363.5,257.833 363.5,248.167 363.5,238.5C 362.167,238.5 360.833,238.5 359.5,238.5C 359.66,240.199 359.494,241.866 359,243.5C 358.283,242.956 357.783,242.289 357.5,241.5C 358.434,240.432 358.768,239.099 358.5,237.5C 360.5,237.5 362.5,237.5 364.5,237.5C 364.827,247.681 364.494,257.681 363.5,267.5 Z"/></g>
<g><path style="opacity:0.129" fill="#d1d1d1" d="M 187.5,238.5 C 189.265,237.539 191.265,237.205 193.5,237.5C 193.5,244.5 193.5,251.5 193.5,258.5C 192.509,252.021 192.176,245.354 192.5,238.5C 191.167,238.5 189.833,238.5 188.5,238.5C 188.167,238.5 187.833,238.5 187.5,238.5 Z"/></g>
<g><path style="opacity:0.71" fill="#8d8d8d" d="M 238.5,242.5 C 240.027,242.427 241.027,243.094 241.5,244.5C 239.973,244.573 238.973,243.906 238.5,242.5 Z"/></g>
<g><path style="opacity:1" fill="#373737" d="M 112.5,232.5 C 116.373,234.43 120.706,235.097 125.5,234.5C 126.338,234.842 126.672,235.508 126.5,236.5C 127.156,241.503 129.323,246.17 133,250.5C 140.146,246.999 146.313,242.166 151.5,236C 152.448,235.517 153.448,235.351 154.5,235.5C 150.188,243.475 143.855,249.475 135.5,253.5C 134.566,255.095 134.566,256.761 135.5,258.5C 135.715,260.179 135.048,261.179 133.5,261.5C 132.874,259.237 131.54,257.57 129.5,256.5C 126.218,257.488 122.885,258.154 119.5,258.5C 119.651,262.729 120.818,266.396 123,269.5C 121.391,270.147 119.891,270.98 118.5,272C 115.031,271.394 111.864,271.894 109,273.5C 106.944,270.691 107.777,269.358 111.5,269.5C 112.1,268.1 113.1,267.1 114.5,266.5C 115.207,270.075 116.207,270.242 117.5,267C 116.078,261.221 114.911,255.388 114,249.5C 110.245,247.372 106.412,245.372 102.5,243.5C 101.701,238.7 102.701,234.2 105.5,230C 103.485,228.445 103.152,226.611 104.5,224.5C 107.521,226.854 110.188,229.521 112.5,232.5 Z M 107.5,232.5 C 111.354,236.016 116.021,237.516 121.5,237C 124.257,242.344 126.59,247.844 128.5,253.5C 125.167,254.167 121.833,254.833 118.5,255.5C 118.067,252.834 117.567,250.168 117,247.5C 113.744,245.121 110.244,243.121 106.5,241.5C 106.167,240.833 105.833,240.167 105.5,239.5C 106.173,237.149 106.84,234.816 107.5,232.5 Z"/></g>
<g><path style="opacity:0.906" fill="#6e6e6e" d="M 313.5,240.5 C 314.924,242.515 315.59,244.848 315.5,247.5C 314.076,245.485 313.41,243.152 313.5,240.5 Z"/></g>
<g><path style="opacity:1" fill="#373737" d="M 93.5,242.5 C 99.1129,245.555 104.946,248.222 111,250.5C 112.488,255.772 113.654,261.105 114.5,266.5C 113.1,267.1 112.1,268.1 111.5,269.5C 110.908,266.873 110.575,264.206 110.5,261.5C 107.157,262.224 103.824,263.057 100.5,264C 97.0664,268.19 93.3998,272.19 89.5,276C 85.8339,277.271 83.3339,276.104 82,272.5C 79.5559,274.556 77.7226,277.056 76.5,280C 75.552,280.483 74.552,280.649 73.5,280.5C 75.0819,273.744 79.0819,268.911 85.5,266C 88.685,263.116 91.5184,259.949 94,256.5C 95.2266,251.938 94.3933,247.938 91.5,244.5C 91.5,243.167 92.1667,242.5 93.5,242.5 Z M 97.5,248.5 C 98.1499,248.804 98.8165,249.137 99.5,249.5C 100.655,252.446 100.821,255.446 100,258.5C 95.6667,263.5 91.3333,268.5 87,273.5C 86.5,273 86,272.5 85.5,272C 89.3333,267.5 93.1667,263 97,258.5C 97.4983,255.183 97.665,251.85 97.5,248.5 Z M 103.5,251.5 C 105.117,252.038 106.784,252.371 108.5,252.5C 108.833,254.5 109.167,256.5 109.5,258.5C 107.738,258.357 106.071,258.691 104.5,259.5C 103.52,256.914 103.187,254.247 103.5,251.5 Z"/></g>
<g><path style="opacity:0.38" fill="#a0a0a0" d="M 174.5,240.5 C 174.217,241.289 173.717,241.956 173,242.5C 172.51,241.207 172.343,239.873 172.5,238.5C 171.167,238.5 169.833,238.5 168.5,238.5C 168.5,248.167 168.5,257.833 168.5,267.5C 167.506,257.681 167.173,247.681 167.5,237.5C 169.5,237.5 171.5,237.5 173.5,237.5C 173.263,238.791 173.596,239.791 174.5,240.5 Z"/></g>
<g><path style="opacity:1" fill="#4b4b4b" d="M 149.5,255.5 C 152.508,259.075 151.508,260.742 146.5,260.5C 146.721,258.336 147.721,256.67 149.5,255.5 Z"/></g>
<g><path style="opacity:0.737" fill="#747474" d="M 297.5,251.5 C 298.924,253.515 299.59,255.848 299.5,258.5C 298.076,256.485 297.41,254.152 297.5,251.5 Z"/></g>
<g><path style="opacity:0.388" fill="#a7a7a7" d="M 299.5,258.5 C 300.167,258.833 300.833,259.167 301.5,259.5C 301.631,260.376 301.298,261.043 300.5,261.5C 299.614,260.675 299.281,259.675 299.5,258.5 Z"/></g>
<g><path style="opacity:0.341" fill="#b0b0b0" d="M 384.5,258.5 C 383.968,261.46 383.301,261.793 382.5,259.5C 383.167,259.167 383.833,258.833 384.5,258.5 Z"/></g>
<g><path style="opacity:0.063" fill="#c1c1c1" d="M 135.5,258.5 C 136.451,259.919 136.784,261.585 136.5,263.5C 136.167,263.5 135.833,263.5 135.5,263.5C 134.833,262.833 134.167,262.167 133.5,261.5C 135.048,261.179 135.715,260.179 135.5,258.5 Z"/></g>
<g><path style="opacity:1" fill="#4e4e4e" d="M 141.5,260.5 C 142.833,260.5 144.167,260.5 145.5,260.5C 145.542,262.849 144.375,264.182 142,264.5C 138.948,263.421 138.782,262.088 141.5,260.5 Z"/></g>
<g><path style="opacity:1" fill="#474747" d="M 135.5,263.5 C 135.833,263.5 136.167,263.5 136.5,263.5C 138.028,263.517 138.528,264.184 138,265.5C 136.667,266.167 135.333,266.833 134,267.5C 131.931,265.296 132.431,263.963 135.5,263.5 Z"/></g>
<g><path style="opacity:0.682" fill="#959595" d="M 257.5,263.5 C 259.027,263.427 260.027,264.094 260.5,265.5C 258.973,265.573 257.973,264.906 257.5,263.5 Z"/></g>
<g><path style="opacity:0.32" fill="#a9a9a9" d="M 209.5,267.5 C 208.833,266.833 208.167,266.167 207.5,265.5C 207.783,264.711 208.283,264.044 209,263.5C 209.49,264.793 209.657,266.127 209.5,267.5 Z"/></g>
<g><path style="opacity:1" fill="#424242" d="M 125.5,265.5 C 127.167,265.5 128.833,265.5 130.5,265.5C 130.5,266.5 130.5,267.5 130.5,268.5C 128.396,268.799 126.396,268.466 124.5,267.5C 124.863,266.817 125.196,266.15 125.5,265.5 Z"/></g>
<g><path style="opacity:0.208" fill="#c0c0c0" d="M 279.5,267.5 C 278.833,266.5 278.167,265.5 277.5,264.5C 277.783,263.711 278.283,263.044 279,262.5C 279.494,264.134 279.66,265.801 279.5,267.5 Z"/></g>
<g><path style="opacity:0.486" fill="#989898" d="M 338.5,264.5 C 340.027,264.427 341.027,265.094 341.5,266.5C 339.973,266.573 338.973,265.906 338.5,264.5 Z"/></g>
<g><path style="opacity:0.463" fill="#8d8d8d" d="M 359.5,267.5 C 358.833,266.5 358.167,265.5 357.5,264.5C 357.783,263.711 358.283,263.044 359,262.5C 359.494,264.134 359.66,265.801 359.5,267.5 Z"/></g>
<g><path style="opacity:1" fill="#424242" d="M 102.5,271.5 C 103.5,271.5 104.5,271.5 105.5,271.5C 105.616,274.91 103.95,276.244 100.5,275.5C 100.527,273.801 101.194,272.467 102.5,271.5 Z"/></g>
<g><path style="opacity:1" fill="#4e4e4e" d="M 96.5,275.5 C 99.9599,276.26 100.293,277.76 97.5,280C 96.552,280.483 95.552,280.649 94.5,280.5C 94.3915,278.486 95.0582,276.82 96.5,275.5 Z"/></g>
</svg>
